<?xml version="1.0" encoding="utf-8"?>
<!-- Generator: Adobe Illustrator 16.0.4, SVG Export Plug-In . SVG Version: 6.00 Build 0)  -->
<!DOCTYPE svg PUBLIC "-//W3C//DTD SVG 1.1//EN" "http://www.w3.org/Graphics/SVG/1.1/DTD/svg11.dtd">
<svg version="1.1"
	 id="svg2" sodipodi:docname="Novo documento 1" inkscape:version="0.48.2 r9819" xmlns:inkscape="http://www.inkscape.org/namespaces/inkscape" xmlns:sodipodi="http://sodipodi.sourceforge.net/DTD/sodipodi-0.dtd" xmlns:svg="http://www.w3.org/2000/svg" xmlns:rdf="http://www.w3.org/1999/02/22-rdf-syntax-ns#" xmlns:cc="http://creativecommons.org/ns#" xmlns:dc="http://purl.org/dc/elements/1.1/"
	 xmlns="http://www.w3.org/2000/svg" xmlns:xlink="http://www.w3.org/1999/xlink" x="0px" y="0px" width="141.732px"
	 height="141.732px" viewBox="0 0 141.732 141.732" enable-background="new 0 0 141.732 141.732" xml:space="preserve">
<sodipodi:namedview  inkscape:pageshadow="2" fit-margin-right="0" inkscape:pageopacity="0.0" inkscape:window-height="1018" fit-margin-bottom="0" inkscape:window-x="-8" inkscape:document-units="px" inkscape:window-y="-8" inkscape:window-maximized="1" inkscape:window-width="1920" inkscape:current-layer="layer1" fit-margin-left="0" fit-margin-top="0" showgrid="false" inkscape:cy="189.24062" inkscape:cx="484.0582" inkscape:zoom="0.7" borderopacity="1.0" bordercolor="#666666" pagecolor="#ffffff" id="base">
	</sodipodi:namedview>
<path d="M34.085,52.656c8.736-7.502,15.637-13.433,34.359-2.854c8.994,5.081,16.249,6.999,22.289,6.998
	c10.574,0,17.426-5.883,23.352-10.975c2.113-1.814-4.324-9.632-6.438-7.815c-8.735,7.505-15.635,13.434-34.363,2.853
	c-24.739-13.975-36.326-4.02-45.637,3.977C25.535,46.655,31.971,54.472,34.085,52.656z M107.647,63.544
	c-8.735,7.503-15.635,13.434-34.363,2.854c-24.739-13.976-36.326-4.021-45.637,3.977c-2.112,1.816,4.325,9.631,6.438,7.815
	c8.736-7.504,15.637-13.433,34.359-2.855c8.994,5.081,16.249,7,22.289,7c10.574,0,17.426-5.884,23.352-10.975
	C116.198,69.543,109.76,61.727,107.647,63.544z M107.647,89.075c-8.735,7.504-15.635,13.434-34.363,2.854
	c-24.739-13.976-36.326-4.021-45.637,3.978c-2.112,1.815,4.325,9.632,6.438,7.815c8.736-7.504,15.636-13.432,34.359-2.855
	c8.994,5.083,16.249,7,22.289,7c10.574,0,17.426-5.884,23.352-10.975C116.198,95.077,109.76,87.26,107.647,89.075z"/>
</svg>
