<?xml version="1.0" encoding="utf-8"?>
<!-- Generator: Adobe Illustrator 16.0.4, SVG Export Plug-In . SVG Version: 6.00 Build 0)  -->
<!DOCTYPE svg PUBLIC "-//W3C//DTD SVG 1.1//EN" "http://www.w3.org/Graphics/SVG/1.1/DTD/svg11.dtd">
<svg version="1.1"
	 id="svg2" sodipodi:docname="Novo documento 1" inkscape:version="0.48.2 r9819" xmlns:inkscape="http://www.inkscape.org/namespaces/inkscape" xmlns:sodipodi="http://sodipodi.sourceforge.net/DTD/sodipodi-0.dtd" xmlns:svg="http://www.w3.org/2000/svg" xmlns:rdf="http://www.w3.org/1999/02/22-rdf-syntax-ns#" xmlns:cc="http://creativecommons.org/ns#" xmlns:dc="http://purl.org/dc/elements/1.1/"
	 xmlns="http://www.w3.org/2000/svg" xmlns:xlink="http://www.w3.org/1999/xlink" x="0px" y="0px" width="141.732px"
	 height="141.732px" viewBox="0 0 141.732 141.732" enable-background="new 0 0 141.732 141.732" xml:space="preserve">
<sodipodi:namedview  inkscape:pageshadow="2" fit-margin-right="0" inkscape:pageopacity="0.0" inkscape:window-height="1018" fit-margin-bottom="0" inkscape:window-x="-8" inkscape:document-units="px" inkscape:window-y="-8" inkscape:window-maximized="1" inkscape:window-width="1920" inkscape:current-layer="layer1" fit-margin-left="0" fit-margin-top="0" showgrid="false" inkscape:cy="189.24062" inkscape:cx="484.0582" inkscape:zoom="0.7" borderopacity="1.0" bordercolor="#666666" pagecolor="#ffffff" id="base">
	</sodipodi:namedview>
<g>
	<path fill="#FFFFFF" stroke="#000000" stroke-width="9" stroke-linejoin="round" stroke-miterlimit="10" d="M101.826,25.781
		c11.006,0,19.926,8.922,19.926,19.926c0,11.006-8.92,19.927-19.926,19.927c-11.004,0-19.926-8.921-19.926-19.927"/>
	
		<line fill="none" stroke="#000000" stroke-width="9" stroke-linejoin="round" stroke-miterlimit="10" x1="81.9" y1="45.707" x2="81.9" y2="15.351"/>
</g>
<g>
	<path fill="none" stroke="#000000" stroke-width="9" stroke-linejoin="round" stroke-miterlimit="10" d="M89.826,84.78
		c11.006,0,19.926,8.922,19.926,19.927c0,11.006-8.92,19.927-19.926,19.927c-11.004,0-19.926-8.921-19.926-19.927"/>
	
		<line fill="none" stroke="#000000" stroke-width="9" stroke-linejoin="round" stroke-miterlimit="10" x1="69.9" y1="104.707" x2="69.9" y2="15.351"/>
</g>
<g>
	<path fill="none" stroke="#000000" stroke-width="9" stroke-linejoin="round" stroke-miterlimit="10" d="M34.224,66.531
		c-11.006,0-19.926,8.921-19.926,19.926s8.92,19.926,19.926,19.926c11.004,0,19.926-8.921,19.926-19.926"/>
	
		<line fill="none" stroke="#000000" stroke-width="9" stroke-linejoin="round" stroke-miterlimit="10" x1="54.15" y1="86.457" x2="54.15" y2="15.351"/>
</g>
</svg>
