<?xml version="1.0" encoding="utf-8"?>
<!-- Generator: Adobe Illustrator 16.0.4, SVG Export Plug-In . SVG Version: 6.00 Build 0)  -->
<!DOCTYPE svg PUBLIC "-//W3C//DTD SVG 1.1//EN" "http://www.w3.org/Graphics/SVG/1.1/DTD/svg11.dtd">
<svg version="1.1"
	 id="svg2" sodipodi:docname="Novo documento 1" inkscape:version="0.48.2 r9819" xmlns:inkscape="http://www.inkscape.org/namespaces/inkscape" xmlns:sodipodi="http://sodipodi.sourceforge.net/DTD/sodipodi-0.dtd" xmlns:svg="http://www.w3.org/2000/svg" xmlns:rdf="http://www.w3.org/1999/02/22-rdf-syntax-ns#" xmlns:cc="http://creativecommons.org/ns#" xmlns:dc="http://purl.org/dc/elements/1.1/"
	 xmlns="http://www.w3.org/2000/svg" xmlns:xlink="http://www.w3.org/1999/xlink" x="0px" y="0px" width="141.732px"
	 height="141.732px" viewBox="0 0 141.732 141.732" enable-background="new 0 0 141.732 141.732" xml:space="preserve">
<sodipodi:namedview  inkscape:pageshadow="2" fit-margin-right="0" inkscape:pageopacity="0.0" inkscape:window-height="1018" fit-margin-bottom="0" inkscape:window-x="-8" inkscape:document-units="px" inkscape:window-y="-8" inkscape:window-maximized="1" inkscape:window-width="1920" inkscape:current-layer="layer1" fit-margin-left="0" fit-margin-top="0" showgrid="false" inkscape:cy="189.24062" inkscape:cx="484.0582" inkscape:zoom="0.7" borderopacity="1.0" bordercolor="#666666" pagecolor="#ffffff" id="base">
	</sodipodi:namedview>
<path fill="none" stroke="#1D1D1B" stroke-width="8" stroke-linecap="round" stroke-linejoin="bevel" stroke-miterlimit="10" d="
	M60.779,14.92C38.173,17.611,32.79,36.449,32.252,57.71c0.539,16.417,12.38,26.644,26.643,36.871
	c12.11,8.073,10.227,26.374-4.307,28.526c16.417,8.074,26.643,1.884,34.178-8.342c4.576-8.075,4.576-18.301-5.381-26.375
	c8.073,4.037,14.263,6.19,24.489,1.884c-6.189-1.884-10.227-2.96-12.38-9.149c-4.036-14.265,12.649-16.147,12.649-36.602
	c0-12.111-10.766-29.604-26.913-29.604"/>
<path fill="none" stroke="#1D1D1B" stroke-width="8" stroke-linecap="round" stroke-linejoin="bevel" stroke-miterlimit="10" d="
	M82.169,16.265c5.383,5.382,13.456,12.109,8.073,26.913c-5.382-9.42-14.802-8.075-14.802-2.692
	c4.037,9.42,2.692,21.53-10.764,24.221c4.036-9.419,2.692-16.148-8.074-14.801c-6.459,0.538-8.881-7.805-8.073-14.803
	c1.345-10.765,7.804-18.031,13.456-20.184"/>
</svg>
