<?xml version="1.0" encoding="utf-8"?>
<!-- Generator: Adobe Illustrator 16.0.4, SVG Export Plug-In . SVG Version: 6.00 Build 0)  -->
<!DOCTYPE svg PUBLIC "-//W3C//DTD SVG 1.1//EN" "http://www.w3.org/Graphics/SVG/1.1/DTD/svg11.dtd">
<svg version="1.1"
	 id="svg2" sodipodi:docname="Novo documento 1" inkscape:version="0.48.2 r9819" xmlns:inkscape="http://www.inkscape.org/namespaces/inkscape" xmlns:sodipodi="http://sodipodi.sourceforge.net/DTD/sodipodi-0.dtd" xmlns:svg="http://www.w3.org/2000/svg" xmlns:rdf="http://www.w3.org/1999/02/22-rdf-syntax-ns#" xmlns:cc="http://creativecommons.org/ns#" xmlns:dc="http://purl.org/dc/elements/1.1/"
	 xmlns="http://www.w3.org/2000/svg" xmlns:xlink="http://www.w3.org/1999/xlink" x="0px" y="0px" width="141.732px"
	 height="141.732px" viewBox="0 0 141.732 141.732" enable-background="new 0 0 141.732 141.732" xml:space="preserve">
<sodipodi:namedview  inkscape:pageshadow="2" fit-margin-right="0" inkscape:pageopacity="0.0" inkscape:window-height="1018" fit-margin-bottom="0" inkscape:window-x="-8" inkscape:document-units="px" inkscape:window-y="-8" inkscape:window-maximized="1" inkscape:window-width="1920" inkscape:current-layer="layer1" fit-margin-left="0" fit-margin-top="0" showgrid="false" inkscape:cy="189.24062" inkscape:cx="484.0582" inkscape:zoom="0.7" borderopacity="1.0" bordercolor="#666666" pagecolor="#ffffff" id="base">
	</sodipodi:namedview>
<path fill="none" stroke="#000000" stroke-width="9" stroke-linecap="square" stroke-linejoin="bevel" stroke-miterlimit="10" d="
	M58.707,92.872c15.973,15.973,61.892,27.723,61.678,26.928c0.795,0.215-10.955-45.703-26.93-61.678
	C77.501,42.166,64.669,43.816,54.81,52.47c0,0-0.638,0.535-0.92,0.834c-0.3,0.282-0.597,0.568-0.892,0.862
	C52.998,54.167,42.752,76.915,58.707,92.872z"/>
<line fill="none" stroke="#000000" stroke-width="9" stroke-linecap="square" stroke-linejoin="bevel" stroke-miterlimit="10" x1="53.293" y1="53.873" x2="25.31" y2="53.873"/>
<path fill="none" stroke="#000000" stroke-width="9" stroke-linecap="square" stroke-linejoin="bevel" stroke-miterlimit="10" d="
	M23.795,13.394c0,0,3.07,7.847,3.07,16.406s-6.48,22.825-6.48,35.902s6.48,21.06,6.48,36.392s-6.48,18.277-6.48,27.136"/>
</svg>
