<?xml version="1.0" encoding="utf-8"?>
<!-- Generator: Adobe Illustrator 16.0.0, SVG Export Plug-In . SVG Version: 6.00 Build 0)  -->
<!DOCTYPE svg PUBLIC "-//W3C//DTD SVG 1.1//EN" "http://www.w3.org/Graphics/SVG/1.1/DTD/svg11.dtd">
<svg version="1.1" id="Layer_1" xmlns="http://www.w3.org/2000/svg" xmlns:xlink="http://www.w3.org/1999/xlink" x="0px" y="0px"
	 width="76.936px" height="53.5px" viewBox="0 0 76.936 53.5" enable-background="new 0 0 76.936 53.5" xml:space="preserve">
<rect x="-11.515" y="-23.248" fill="none" width="101.239" height="99.221"/>
<g>
	<g>
		<defs>
			<rect id="SVGID_1_" x="-378.455" y="-715.898" width="597" height="844"/>
		</defs>
		<clipPath id="SVGID_2_">
			<use xlink:href="#SVGID_1_"  overflow="visible"/>
		</clipPath>
		<g clip-path="url(#SVGID_2_)">
			<g>
				<defs>
					<rect id="SVGID_3_" x="-377.455" y="-714.938" width="594.96" height="842.04"/>
				</defs>
				<defs>
					<rect id="SVGID_4_" x="-377.455" y="-714.938" width="594.96" height="842.04"/>
				</defs>
				<defs>
					<rect id="SVGID_5_" x="-377.455" y="-714.938" width="594.96" height="842.04"/>
				</defs>
				<defs>
					<rect id="SVGID_6_" x="-377.455" y="-714.938" width="594.96" height="842.04"/>
				</defs>
				<defs>
					<rect id="SVGID_7_" x="-377.455" y="-714.938" width="594.96" height="842.04"/>
				</defs>
				<defs>
					<rect id="SVGID_8_" x="-377.455" y="-714.938" width="594.96" height="842.04"/>
				</defs>
				<defs>
					<rect id="SVGID_9_" x="-377.455" y="-714.938" width="594.96" height="842.04"/>
				</defs>
				<defs>
					<rect id="SVGID_10_" x="-377.455" y="-714.938" width="594.96" height="842.04"/>
				</defs>
				<defs>
					<rect id="SVGID_11_" x="-377.455" y="-714.938" width="594.96" height="842.04"/>
				</defs>
				<defs>
					<rect id="SVGID_12_" x="-377.455" y="-714.938" width="594.96" height="842.04"/>
				</defs>
				<defs>
					<rect id="SVGID_13_" x="-377.455" y="-714.938" width="594.96" height="842.04"/>
				</defs>
				<defs>
					<rect id="SVGID_14_" x="-377.455" y="-714.938" width="594.96" height="842.04"/>
				</defs>
				<defs>
					<rect id="SVGID_15_" x="-377.455" y="-714.938" width="594.96" height="842.04"/>
				</defs>
				<defs>
					<rect id="SVGID_16_" x="-377.455" y="-714.938" width="594.96" height="842.04"/>
				</defs>
				<defs>
					<rect id="SVGID_17_" x="-377.455" y="-714.938" width="594.96" height="842.04"/>
				</defs>
				<defs>
					<rect id="SVGID_18_" x="-377.455" y="-714.938" width="594.96" height="842.04"/>
				</defs>
				<defs>
					<rect id="SVGID_19_" x="-377.455" y="-714.938" width="594.96" height="842.04"/>
				</defs>
				<defs>
					<rect id="SVGID_20_" x="-377.455" y="-714.938" width="594.96" height="842.04"/>
				</defs>
				<defs>
					<rect id="SVGID_21_" x="-377.455" y="-714.938" width="594.96" height="842.04"/>
				</defs>
				<defs>
					<rect id="SVGID_22_" x="-377.455" y="-714.938" width="594.96" height="842.04"/>
				</defs>
				<defs>
					<rect id="SVGID_23_" x="-377.455" y="-714.938" width="594.96" height="842.04"/>
				</defs>
				<defs>
					<rect id="SVGID_24_" x="-377.455" y="-714.938" width="594.96" height="842.04"/>
				</defs>
				<defs>
					<rect id="SVGID_25_" x="-377.455" y="-714.938" width="594.96" height="842.04"/>
				</defs>
				<defs>
					<rect id="SVGID_26_" x="-377.455" y="-714.938" width="594.96" height="842.04"/>
				</defs>
				<defs>
					<rect id="SVGID_27_" x="-377.455" y="-714.938" width="594.96" height="842.04"/>
				</defs>
				<defs>
					<rect id="SVGID_28_" x="-377.455" y="-714.938" width="594.96" height="842.04"/>
				</defs>
				<defs>
					<rect id="SVGID_29_" x="-377.455" y="-714.938" width="594.96" height="842.04"/>
				</defs>
				<defs>
					<rect id="SVGID_30_" x="-377.455" y="-714.938" width="594.96" height="842.04"/>
				</defs>
				<defs>
					<rect id="SVGID_31_" x="-377.455" y="-714.938" width="594.96" height="842.04"/>
				</defs>
				<defs>
					<rect id="SVGID_32_" x="-377.455" y="-714.938" width="594.96" height="842.04"/>
				</defs>
				<defs>
					<rect id="SVGID_33_" x="-377.455" y="-714.938" width="594.96" height="842.04"/>
				</defs>
				<defs>
					<rect id="SVGID_34_" x="-377.455" y="-714.938" width="594.96" height="842.04"/>
				</defs>
				<defs>
					<rect id="SVGID_35_" x="-377.455" y="-714.938" width="594.96" height="842.04"/>
				</defs>
				<defs>
					<rect id="SVGID_36_" x="-377.455" y="-714.938" width="594.96" height="842.04"/>
				</defs>
				<defs>
					<rect id="SVGID_37_" x="-377.455" y="-714.938" width="594.96" height="842.04"/>
				</defs>
				<defs>
					<rect id="SVGID_38_" x="-377.455" y="-714.938" width="594.96" height="842.04"/>
				</defs>
				<defs>
					<rect id="SVGID_39_" x="-377.455" y="-714.938" width="594.96" height="842.04"/>
				</defs>
				<defs>
					<rect id="SVGID_40_" x="-377.455" y="-714.938" width="594.96" height="842.04"/>
				</defs>
				<defs>
					<rect id="SVGID_41_" x="-377.455" y="-714.938" width="594.96" height="842.04"/>
				</defs>
				<defs>
					<rect id="SVGID_42_" x="-377.455" y="-714.938" width="594.96" height="842.04"/>
				</defs>
				<defs>
					<rect id="SVGID_43_" x="-377.455" y="-714.938" width="594.96" height="842.04"/>
				</defs>
				<defs>
					<rect id="SVGID_44_" x="-377.455" y="-714.938" width="594.96" height="842.04"/>
				</defs>
				<defs>
					<rect id="SVGID_45_" x="-377.455" y="-714.938" width="594.96" height="842.04"/>
				</defs>
				<defs>
					<rect id="SVGID_46_" x="-377.455" y="-714.938" width="594.96" height="842.04"/>
				</defs>
				<defs>
					<rect id="SVGID_47_" x="-377.455" y="-714.938" width="594.96" height="842.04"/>
				</defs>
				<defs>
					<rect id="SVGID_48_" x="-377.455" y="-714.938" width="594.96" height="842.04"/>
				</defs>
				<defs>
					<rect id="SVGID_49_" x="-377.455" y="-714.938" width="594.96" height="842.04"/>
				</defs>
				<defs>
					<rect id="SVGID_50_" x="-377.455" y="-714.938" width="594.96" height="842.04"/>
				</defs>
				<defs>
					<rect id="SVGID_51_" x="-377.455" y="-714.938" width="594.96" height="842.04"/>
				</defs>
				<defs>
					<rect id="SVGID_52_" x="-377.455" y="-714.938" width="594.96" height="842.04"/>
				</defs>
				<defs>
					<rect id="SVGID_53_" x="-377.455" y="-714.938" width="594.96" height="842.04"/>
				</defs>
				<defs>
					<rect id="SVGID_54_" x="-377.455" y="-714.938" width="594.96" height="842.04"/>
				</defs>
				<defs>
					<rect id="SVGID_55_" x="-377.455" y="-714.938" width="594.96" height="842.04"/>
				</defs>
				<defs>
					<rect id="SVGID_56_" x="-377.455" y="-714.938" width="594.96" height="842.04"/>
				</defs>
				<defs>
					<rect id="SVGID_57_" x="-377.455" y="-714.938" width="594.96" height="842.04"/>
				</defs>
				<defs>
					<rect id="SVGID_58_" x="-377.455" y="-714.938" width="594.96" height="842.04"/>
				</defs>
				<defs>
					<rect id="SVGID_59_" x="-377.455" y="-714.938" width="594.96" height="842.04"/>
				</defs>
				<defs>
					<rect id="SVGID_60_" x="-377.455" y="-714.938" width="594.96" height="842.04"/>
				</defs>
				<defs>
					<rect id="SVGID_61_" x="-377.455" y="-714.938" width="594.96" height="842.04"/>
				</defs>
				<defs>
					<rect id="SVGID_62_" x="-377.455" y="-714.938" width="594.96" height="842.04"/>
				</defs>
				<defs>
					<rect id="SVGID_63_" x="-377.455" y="-714.938" width="594.96" height="842.04"/>
				</defs>
				<defs>
					<rect id="SVGID_64_" x="-377.455" y="-714.938" width="594.96" height="842.04"/>
				</defs>
				<defs>
					<rect id="SVGID_65_" x="-377.455" y="-714.938" width="594.96" height="842.04"/>
				</defs>
				<defs>
					<rect id="SVGID_66_" x="-377.455" y="-714.938" width="594.96" height="842.04"/>
				</defs>
				<defs>
					<rect id="SVGID_67_" x="-377.455" y="-714.938" width="594.96" height="842.04"/>
				</defs>
				<defs>
					<rect id="SVGID_68_" x="-377.455" y="-714.938" width="594.96" height="842.04"/>
				</defs>
				<defs>
					<rect id="SVGID_69_" x="-377.455" y="-714.938" width="594.96" height="842.04"/>
				</defs>
				<defs>
					<rect id="SVGID_70_" x="-377.455" y="-714.938" width="594.96" height="842.04"/>
				</defs>
				<defs>
					<rect id="SVGID_71_" x="-377.455" y="-714.938" width="594.96" height="842.04"/>
				</defs>
				<defs>
					<rect id="SVGID_72_" x="-377.455" y="-714.938" width="594.96" height="842.04"/>
				</defs>
				<defs>
					<rect id="SVGID_73_" x="-377.455" y="-714.938" width="594.96" height="842.04"/>
				</defs>
				<defs>
					<rect id="SVGID_74_" x="-377.455" y="-714.938" width="594.96" height="842.04"/>
				</defs>
				<defs>
					<rect id="SVGID_75_" x="-377.455" y="-714.938" width="594.96" height="842.04"/>
				</defs>
				<defs>
					<rect id="SVGID_76_" x="-377.455" y="-714.938" width="594.96" height="842.04"/>
				</defs>
				<defs>
					<rect id="SVGID_77_" x="-377.455" y="-714.938" width="594.96" height="842.04"/>
				</defs>
				<defs>
					<rect id="SVGID_78_" x="-377.455" y="-714.938" width="594.96" height="842.04"/>
				</defs>
				<defs>
					<rect id="SVGID_79_" x="-377.455" y="-714.938" width="594.96" height="842.04"/>
				</defs>
				<defs>
					<rect id="SVGID_80_" x="-377.455" y="-714.938" width="594.96" height="842.04"/>
				</defs>
				<defs>
					<rect id="SVGID_81_" x="-377.455" y="-714.938" width="594.96" height="842.04"/>
				</defs>
				<defs>
					<rect id="SVGID_82_" x="-377.455" y="-714.938" width="594.96" height="842.04"/>
				</defs>
				<defs>
					<rect id="SVGID_83_" x="-377.455" y="-714.938" width="594.96" height="842.04"/>
				</defs>
				<defs>
					<rect id="SVGID_84_" x="-377.455" y="-714.938" width="594.96" height="842.04"/>
				</defs>
				<defs>
					<rect id="SVGID_85_" x="-377.455" y="-714.938" width="594.96" height="842.04"/>
				</defs>
				<defs>
					<rect id="SVGID_86_" x="-377.455" y="-714.938" width="594.96" height="842.04"/>
				</defs>
				<defs>
					<rect id="SVGID_87_" x="-377.455" y="-714.938" width="594.96" height="842.04"/>
				</defs>
				<defs>
					<rect id="SVGID_88_" x="-377.455" y="-714.938" width="594.96" height="842.04"/>
				</defs>
				<defs>
					<rect id="SVGID_89_" x="-377.455" y="-714.938" width="594.96" height="842.04"/>
				</defs>
				<defs>
					<rect id="SVGID_90_" x="-377.455" y="-714.938" width="594.96" height="842.04"/>
				</defs>
				<defs>
					<rect id="SVGID_91_" x="-377.455" y="-714.938" width="594.96" height="842.04"/>
				</defs>
				<defs>
					<rect id="SVGID_92_" x="-377.455" y="-714.938" width="594.96" height="842.04"/>
				</defs>
				<defs>
					<rect id="SVGID_93_" x="-377.455" y="-714.938" width="594.96" height="842.04"/>
				</defs>
				<defs>
					<rect id="SVGID_94_" x="-377.455" y="-714.938" width="594.96" height="842.04"/>
				</defs>
				<clipPath id="SVGID_95_">
					<use xlink:href="#SVGID_3_"  overflow="visible"/>
				</clipPath>
				<clipPath id="SVGID_96_" clip-path="url(#SVGID_95_)">
					<use xlink:href="#SVGID_4_"  overflow="visible"/>
				</clipPath>
				<clipPath id="SVGID_97_" clip-path="url(#SVGID_96_)">
					<use xlink:href="#SVGID_5_"  overflow="visible"/>
				</clipPath>
				<clipPath id="SVGID_98_" clip-path="url(#SVGID_97_)">
					<use xlink:href="#SVGID_6_"  overflow="visible"/>
				</clipPath>
				<clipPath id="SVGID_99_" clip-path="url(#SVGID_98_)">
					<use xlink:href="#SVGID_7_"  overflow="visible"/>
				</clipPath>
				<clipPath id="SVGID_100_" clip-path="url(#SVGID_99_)">
					<use xlink:href="#SVGID_8_"  overflow="visible"/>
				</clipPath>
				<clipPath id="SVGID_101_" clip-path="url(#SVGID_100_)">
					<use xlink:href="#SVGID_9_"  overflow="visible"/>
				</clipPath>
				<clipPath id="SVGID_102_" clip-path="url(#SVGID_101_)">
					<use xlink:href="#SVGID_10_"  overflow="visible"/>
				</clipPath>
				<clipPath id="SVGID_103_" clip-path="url(#SVGID_102_)">
					<use xlink:href="#SVGID_11_"  overflow="visible"/>
				</clipPath>
				<clipPath id="SVGID_104_" clip-path="url(#SVGID_103_)">
					<use xlink:href="#SVGID_12_"  overflow="visible"/>
				</clipPath>
				<clipPath id="SVGID_105_" clip-path="url(#SVGID_104_)">
					<use xlink:href="#SVGID_13_"  overflow="visible"/>
				</clipPath>
				<clipPath id="SVGID_106_" clip-path="url(#SVGID_105_)">
					<use xlink:href="#SVGID_14_"  overflow="visible"/>
				</clipPath>
				<clipPath id="SVGID_107_" clip-path="url(#SVGID_106_)">
					<use xlink:href="#SVGID_15_"  overflow="visible"/>
				</clipPath>
				<clipPath id="SVGID_108_" clip-path="url(#SVGID_107_)">
					<use xlink:href="#SVGID_16_"  overflow="visible"/>
				</clipPath>
				<clipPath id="SVGID_109_" clip-path="url(#SVGID_108_)">
					<use xlink:href="#SVGID_17_"  overflow="visible"/>
				</clipPath>
				<clipPath id="SVGID_110_" clip-path="url(#SVGID_109_)">
					<use xlink:href="#SVGID_18_"  overflow="visible"/>
				</clipPath>
				<clipPath id="SVGID_111_" clip-path="url(#SVGID_110_)">
					<use xlink:href="#SVGID_19_"  overflow="visible"/>
				</clipPath>
				<clipPath id="SVGID_112_" clip-path="url(#SVGID_111_)">
					<use xlink:href="#SVGID_20_"  overflow="visible"/>
				</clipPath>
				<clipPath id="SVGID_113_" clip-path="url(#SVGID_112_)">
					<use xlink:href="#SVGID_21_"  overflow="visible"/>
				</clipPath>
				<clipPath id="SVGID_114_" clip-path="url(#SVGID_113_)">
					<use xlink:href="#SVGID_22_"  overflow="visible"/>
				</clipPath>
				<clipPath id="SVGID_115_" clip-path="url(#SVGID_114_)">
					<use xlink:href="#SVGID_23_"  overflow="visible"/>
				</clipPath>
				<clipPath id="SVGID_116_" clip-path="url(#SVGID_115_)">
					<use xlink:href="#SVGID_24_"  overflow="visible"/>
				</clipPath>
				<clipPath id="SVGID_117_" clip-path="url(#SVGID_116_)">
					<use xlink:href="#SVGID_25_"  overflow="visible"/>
				</clipPath>
				<clipPath id="SVGID_118_" clip-path="url(#SVGID_117_)">
					<use xlink:href="#SVGID_26_"  overflow="visible"/>
				</clipPath>
				<clipPath id="SVGID_119_" clip-path="url(#SVGID_118_)">
					<use xlink:href="#SVGID_27_"  overflow="visible"/>
				</clipPath>
				<clipPath id="SVGID_120_" clip-path="url(#SVGID_119_)">
					<use xlink:href="#SVGID_28_"  overflow="visible"/>
				</clipPath>
				<clipPath id="SVGID_121_" clip-path="url(#SVGID_120_)">
					<use xlink:href="#SVGID_29_"  overflow="visible"/>
				</clipPath>
				<clipPath id="SVGID_122_" clip-path="url(#SVGID_121_)">
					<use xlink:href="#SVGID_30_"  overflow="visible"/>
				</clipPath>
				<clipPath id="SVGID_123_" clip-path="url(#SVGID_122_)">
					<use xlink:href="#SVGID_31_"  overflow="visible"/>
				</clipPath>
				<clipPath id="SVGID_124_" clip-path="url(#SVGID_123_)">
					<use xlink:href="#SVGID_32_"  overflow="visible"/>
				</clipPath>
				<clipPath id="SVGID_125_" clip-path="url(#SVGID_124_)">
					<use xlink:href="#SVGID_33_"  overflow="visible"/>
				</clipPath>
				<clipPath id="SVGID_126_" clip-path="url(#SVGID_125_)">
					<use xlink:href="#SVGID_34_"  overflow="visible"/>
				</clipPath>
				<clipPath id="SVGID_127_" clip-path="url(#SVGID_126_)">
					<use xlink:href="#SVGID_35_"  overflow="visible"/>
				</clipPath>
				<clipPath id="SVGID_128_" clip-path="url(#SVGID_127_)">
					<use xlink:href="#SVGID_36_"  overflow="visible"/>
				</clipPath>
				<clipPath id="SVGID_129_" clip-path="url(#SVGID_128_)">
					<use xlink:href="#SVGID_37_"  overflow="visible"/>
				</clipPath>
				<clipPath id="SVGID_130_" clip-path="url(#SVGID_129_)">
					<use xlink:href="#SVGID_38_"  overflow="visible"/>
				</clipPath>
				<clipPath id="SVGID_131_" clip-path="url(#SVGID_130_)">
					<use xlink:href="#SVGID_39_"  overflow="visible"/>
				</clipPath>
				<clipPath id="SVGID_132_" clip-path="url(#SVGID_131_)">
					<use xlink:href="#SVGID_40_"  overflow="visible"/>
				</clipPath>
				<clipPath id="SVGID_133_" clip-path="url(#SVGID_132_)">
					<use xlink:href="#SVGID_41_"  overflow="visible"/>
				</clipPath>
				<clipPath id="SVGID_134_" clip-path="url(#SVGID_133_)">
					<use xlink:href="#SVGID_42_"  overflow="visible"/>
				</clipPath>
				<clipPath id="SVGID_135_" clip-path="url(#SVGID_134_)">
					<use xlink:href="#SVGID_43_"  overflow="visible"/>
				</clipPath>
				<clipPath id="SVGID_136_" clip-path="url(#SVGID_135_)">
					<use xlink:href="#SVGID_44_"  overflow="visible"/>
				</clipPath>
				<clipPath id="SVGID_137_" clip-path="url(#SVGID_136_)">
					<use xlink:href="#SVGID_45_"  overflow="visible"/>
				</clipPath>
				<clipPath id="SVGID_138_" clip-path="url(#SVGID_137_)">
					<use xlink:href="#SVGID_46_"  overflow="visible"/>
				</clipPath>
				<clipPath id="SVGID_139_" clip-path="url(#SVGID_138_)">
					<use xlink:href="#SVGID_47_"  overflow="visible"/>
				</clipPath>
				<clipPath id="SVGID_140_" clip-path="url(#SVGID_139_)">
					<use xlink:href="#SVGID_48_"  overflow="visible"/>
				</clipPath>
				<clipPath id="SVGID_141_" clip-path="url(#SVGID_140_)">
					<use xlink:href="#SVGID_49_"  overflow="visible"/>
				</clipPath>
				<clipPath id="SVGID_142_" clip-path="url(#SVGID_141_)">
					<use xlink:href="#SVGID_50_"  overflow="visible"/>
				</clipPath>
				<clipPath id="SVGID_143_" clip-path="url(#SVGID_142_)">
					<use xlink:href="#SVGID_51_"  overflow="visible"/>
				</clipPath>
				<clipPath id="SVGID_144_" clip-path="url(#SVGID_143_)">
					<use xlink:href="#SVGID_52_"  overflow="visible"/>
				</clipPath>
				<clipPath id="SVGID_145_" clip-path="url(#SVGID_144_)">
					<use xlink:href="#SVGID_53_"  overflow="visible"/>
				</clipPath>
				<clipPath id="SVGID_146_" clip-path="url(#SVGID_145_)">
					<use xlink:href="#SVGID_54_"  overflow="visible"/>
				</clipPath>
				<clipPath id="SVGID_147_" clip-path="url(#SVGID_146_)">
					<use xlink:href="#SVGID_55_"  overflow="visible"/>
				</clipPath>
				<clipPath id="SVGID_148_" clip-path="url(#SVGID_147_)">
					<use xlink:href="#SVGID_56_"  overflow="visible"/>
				</clipPath>
				<clipPath id="SVGID_149_" clip-path="url(#SVGID_148_)">
					<use xlink:href="#SVGID_57_"  overflow="visible"/>
				</clipPath>
				<clipPath id="SVGID_150_" clip-path="url(#SVGID_149_)">
					<use xlink:href="#SVGID_58_"  overflow="visible"/>
				</clipPath>
				<clipPath id="SVGID_151_" clip-path="url(#SVGID_150_)">
					<use xlink:href="#SVGID_59_"  overflow="visible"/>
				</clipPath>
				<clipPath id="SVGID_152_" clip-path="url(#SVGID_151_)">
					<use xlink:href="#SVGID_60_"  overflow="visible"/>
				</clipPath>
				<clipPath id="SVGID_153_" clip-path="url(#SVGID_152_)">
					<use xlink:href="#SVGID_61_"  overflow="visible"/>
				</clipPath>
				<clipPath id="SVGID_154_" clip-path="url(#SVGID_153_)">
					<use xlink:href="#SVGID_62_"  overflow="visible"/>
				</clipPath>
				<clipPath id="SVGID_155_" clip-path="url(#SVGID_154_)">
					<use xlink:href="#SVGID_63_"  overflow="visible"/>
				</clipPath>
				<clipPath id="SVGID_156_" clip-path="url(#SVGID_155_)">
					<use xlink:href="#SVGID_64_"  overflow="visible"/>
				</clipPath>
				<clipPath id="SVGID_157_" clip-path="url(#SVGID_156_)">
					<use xlink:href="#SVGID_65_"  overflow="visible"/>
				</clipPath>
				<clipPath id="SVGID_158_" clip-path="url(#SVGID_157_)">
					<use xlink:href="#SVGID_66_"  overflow="visible"/>
				</clipPath>
				<clipPath id="SVGID_159_" clip-path="url(#SVGID_158_)">
					<use xlink:href="#SVGID_67_"  overflow="visible"/>
				</clipPath>
				<clipPath id="SVGID_160_" clip-path="url(#SVGID_159_)">
					<use xlink:href="#SVGID_68_"  overflow="visible"/>
				</clipPath>
				<clipPath id="SVGID_161_" clip-path="url(#SVGID_160_)">
					<use xlink:href="#SVGID_69_"  overflow="visible"/>
				</clipPath>
				<clipPath id="SVGID_162_" clip-path="url(#SVGID_161_)">
					<use xlink:href="#SVGID_70_"  overflow="visible"/>
				</clipPath>
				<clipPath id="SVGID_163_" clip-path="url(#SVGID_162_)">
					<use xlink:href="#SVGID_71_"  overflow="visible"/>
				</clipPath>
				<clipPath id="SVGID_164_" clip-path="url(#SVGID_163_)">
					<use xlink:href="#SVGID_72_"  overflow="visible"/>
				</clipPath>
				<clipPath id="SVGID_165_" clip-path="url(#SVGID_164_)">
					<use xlink:href="#SVGID_73_"  overflow="visible"/>
				</clipPath>
				<clipPath id="SVGID_166_" clip-path="url(#SVGID_165_)">
					<use xlink:href="#SVGID_74_"  overflow="visible"/>
				</clipPath>
				<clipPath id="SVGID_167_" clip-path="url(#SVGID_166_)">
					<use xlink:href="#SVGID_75_"  overflow="visible"/>
				</clipPath>
				<clipPath id="SVGID_168_" clip-path="url(#SVGID_167_)">
					<use xlink:href="#SVGID_76_"  overflow="visible"/>
				</clipPath>
				<clipPath id="SVGID_169_" clip-path="url(#SVGID_168_)">
					<use xlink:href="#SVGID_77_"  overflow="visible"/>
				</clipPath>
				<clipPath id="SVGID_170_" clip-path="url(#SVGID_169_)">
					<use xlink:href="#SVGID_78_"  overflow="visible"/>
				</clipPath>
				<clipPath id="SVGID_171_" clip-path="url(#SVGID_170_)">
					<use xlink:href="#SVGID_79_"  overflow="visible"/>
				</clipPath>
				<clipPath id="SVGID_172_" clip-path="url(#SVGID_171_)">
					<use xlink:href="#SVGID_80_"  overflow="visible"/>
				</clipPath>
				<clipPath id="SVGID_173_" clip-path="url(#SVGID_172_)">
					<use xlink:href="#SVGID_81_"  overflow="visible"/>
				</clipPath>
				<clipPath id="SVGID_174_" clip-path="url(#SVGID_173_)">
					<use xlink:href="#SVGID_82_"  overflow="visible"/>
				</clipPath>
				<clipPath id="SVGID_175_" clip-path="url(#SVGID_174_)">
					<use xlink:href="#SVGID_83_"  overflow="visible"/>
				</clipPath>
				<clipPath id="SVGID_176_" clip-path="url(#SVGID_175_)">
					<use xlink:href="#SVGID_84_"  overflow="visible"/>
				</clipPath>
				<clipPath id="SVGID_177_" clip-path="url(#SVGID_176_)">
					<use xlink:href="#SVGID_85_"  overflow="visible"/>
				</clipPath>
				<clipPath id="SVGID_178_" clip-path="url(#SVGID_177_)">
					<use xlink:href="#SVGID_86_"  overflow="visible"/>
				</clipPath>
				<clipPath id="SVGID_179_" clip-path="url(#SVGID_178_)">
					<use xlink:href="#SVGID_87_"  overflow="visible"/>
				</clipPath>
				<clipPath id="SVGID_180_" clip-path="url(#SVGID_179_)">
					<use xlink:href="#SVGID_88_"  overflow="visible"/>
				</clipPath>
				<clipPath id="SVGID_181_" clip-path="url(#SVGID_180_)">
					<use xlink:href="#SVGID_89_"  overflow="visible"/>
				</clipPath>
				<clipPath id="SVGID_182_" clip-path="url(#SVGID_181_)">
					<use xlink:href="#SVGID_90_"  overflow="visible"/>
				</clipPath>
				<clipPath id="SVGID_183_" clip-path="url(#SVGID_182_)">
					<use xlink:href="#SVGID_91_"  overflow="visible"/>
				</clipPath>
				<clipPath id="SVGID_184_" clip-path="url(#SVGID_183_)">
					<use xlink:href="#SVGID_92_"  overflow="visible"/>
				</clipPath>
				<clipPath id="SVGID_185_" clip-path="url(#SVGID_184_)">
					<use xlink:href="#SVGID_93_"  overflow="visible"/>
				</clipPath>
				<clipPath id="SVGID_186_" clip-path="url(#SVGID_185_)">
					<use xlink:href="#SVGID_94_"  overflow="visible"/>
				</clipPath>
				<path clip-path="url(#SVGID_186_)" fill="#ED1849" d="M9.142,26.41c-2.04,0.08-4.297-0.113-6.372-0.876
					c0.033,0.135,0.075,0.327,0.107,0.449c0.054,0.11,0.188,0.144,0.462,0.246c1.499,0.553,3.562,0.888,5.803,0.842V26.41"/>
				<path clip-path="url(#SVGID_186_)" d="M11.597,21.418c0-0.941-0.25-1.2-1.162-1.2h-0.93l-0.001,9.737h5.746l0.981-1.562h-4.636
					L11.597,21.418"/>
				<path clip-path="url(#SVGID_186_)" d="M29.458,37.673c1.253-1.512,1.719-2.429,1.732-3.344c0.021-1.519-1.084-2.688-3.113-2.688
					c-1.102,0-2.074,0.346-2.863,0.771l0.003,1.686c0.968-0.724,1.752-0.996,2.648-0.979c0.786,0.017,1.253,0.472,1.253,1.123
					c0,1.11-0.663,1.934-3.453,5.396l-1.399,1.74l7.013-0.001L32.3,39.93c0,0-3.954,0-4.729,0
					C28.345,39.061,28.952,38.281,29.458,37.673"/>
				<path clip-path="url(#SVGID_186_)" d="M36.816,40.15c-1.312,0-2.229-1.45-2.229-3.523c0-2.076,0.917-3.523,2.229-3.523
					s2.229,1.447,2.229,3.523C39.045,38.734,38.148,40.15,36.816,40.15 M36.805,31.641c-2.324,0-4.215,2.24-4.215,4.996
					s1.891,4.997,4.215,4.997c2.323,0,4.215-2.241,4.215-4.997S39.128,31.641,36.805,31.641z"/>
				<polyline clip-path="url(#SVGID_186_)" points="41.853,32.053 41.547,33.384 42.882,33.256 42.882,41.377 44.61,41.377 
					44.61,31.812 41.853,32.053 				"/>
				<path clip-path="url(#SVGID_186_)" fill="#FCB034" d="M66.513,25.419c0.082,0.104,0.158,0.201,0.223,0.284
					c0-0.095,0-0.201,0-0.317C66.661,25.397,66.587,25.408,66.513,25.419"/>
				<path clip-path="url(#SVGID_186_)" fill="#FCB034" d="M73.313,23.193c-1.31,0.69-2.729,1.257-4.223,1.674v0.783
					c1.362-0.402,2.734-0.999,4.075-1.855C73.288,23.709,73.357,23.612,73.313,23.193"/>
				<path clip-path="url(#SVGID_186_)" fill="#FCB034" d="M63.157,25.633c-1.411-0.028-2.842-0.203-4.271-0.561
					c-1.971-0.49-2.413-0.79-3.615-0.981c-1.278-0.205-2.197,0.027-2.762,0.622c-0.601,0.64-0.535,1.948,0.323,2.834
					c-0.688-0.796-0.543-1.944,0.131-2.457c0.593-0.453,1.444-0.611,2.614-0.413c1.087,0.185,1.791,0.527,3.684,1.021
					c1.308,0.342,2.821,0.588,4.439,0.634C63.515,26.092,63.332,25.857,63.157,25.633"/>
				<path clip-path="url(#SVGID_186_)" fill="#0081C6" d="M62.473,24.756c-1.146-0.033-2.267-0.174-3.381-0.417
					c-1.758-0.386-2.878-0.822-4.094-1.042c-1.159-0.209-2.187-0.072-2.872,0.501c-0.563,0.469-0.749,1.162-0.656,1.734
					c0.116,0.722,0.504,1.38,1.361,2.015c-1.202-1.141-1.041-2.602-0.265-3.245c0.483-0.401,1.233-0.648,2.482-0.474
					c0.9,0.126,1.987,0.575,3.96,1.06c1.327,0.324,2.652,0.501,3.979,0.531C62.801,25.177,62.626,24.952,62.473,24.756"/>
				<path clip-path="url(#SVGID_186_)" fill="#0081C6" d="M66.735,24.363c-0.31,0.064-0.613,0.12-0.915,0.167
					c0.182,0.232,0.352,0.45,0.504,0.646c0.138-0.024,0.272-0.049,0.411-0.075C66.735,24.878,66.735,24.628,66.735,24.363"/>
				<path clip-path="url(#SVGID_186_)" fill="#0081C6" d="M73.597,21.719c-0.824,0.563-2.048,1.115-3.141,1.536
					c-0.465,0.178-0.918,0.333-1.365,0.479v0.747c0.476-0.158,0.953-0.328,1.436-0.526c0.905-0.374,2.246-1.014,2.96-1.591
					C73.571,22.286,73.623,22.186,73.597,21.719"/>
				<path clip-path="url(#SVGID_186_)" d="M9.142,24.616c-1.534-0.059-3.232-0.355-4.389-0.844c0.024,0.511,0.092,0.551,0.162,0.584
					c1.079,0.517,2.694,0.806,4.227,0.9V24.616"/>
				<path clip-path="url(#SVGID_186_)" d="M20.123,24.453c-2.3-0.531-4.118-0.371-6.106-0.241c-0.634,0.089-1.306,0.185-2.057,0.267
					c0,0.227,0,0.456,0,0.682c3.012-0.443,4.69-1.105,8.267-0.578c0.439,0.065,0.86,0.143,1.268,0.229
					C21.061,24.687,20.607,24.565,20.123,24.453"/>
				<path clip-path="url(#SVGID_186_)" fill="#ED1849" d="M40.669,24.099c-0.964-0.334-2.511-0.563-3.667-0.326
					c-0.684,0.14-1.354,0.354-2.024,0.631c-0.347,0.189-0.7,0.401-1.06,0.617c0.163,0.209,0.308,0.395,0.431,0.552
					c0.895-0.526,1.784-1.027,2.836-1.322c1.522-0.426,2.639-0.369,3.704-0.031C40.818,24.178,40.744,24.138,40.669,24.099"/>
				<path clip-path="url(#SVGID_186_)" fill="#ED1849" d="M31.441,26.359c-0.513,0.218-1.037,0.396-1.581,0.488
					c0,0.222,0,0.445,0,0.667c0.742-0.133,1.396-0.352,2.007-0.611C31.724,26.723,31.582,26.54,31.441,26.359"/>
				<path clip-path="url(#SVGID_186_)" fill="#ED1849" d="M27.51,26.99c-0.283-0.021-0.563-0.049-0.838-0.09
					c-0.075,0.199-0.164,0.394-0.264,0.581c0.36,0.066,0.728,0.117,1.102,0.146V26.99"/>
				<path clip-path="url(#SVGID_186_)" fill="#ED1849" d="M23.621,26.834c0.095-0.178,0.174-0.366,0.235-0.568
					c-1.057-0.273-2.229-0.556-3.704-0.726c-3.783-0.439-5.126,0.17-8.192,0.604c0,0.251,0,0.485,0,0.704
					c2.986-0.378,5.05-0.988,8.853-0.529C21.89,26.448,22.798,26.639,23.621,26.834"/>
				<path clip-path="url(#SVGID_186_)" fill="#0081C6" d="M23.936,24.197c-1.407-0.517-2.928-1.114-4.982-1.448
					c-3.243-0.527-4.782-0.266-6.992-0.255c0,0.242,0,0.511,0,0.802c2.37,0.029,3.812-0.291,7.23,0.239
					c2.027,0.315,3.517,0.804,4.825,1.237C24.002,24.572,23.977,24.381,23.936,24.197"/>
				<path clip-path="url(#SVGID_186_)" fill="#0081C6" d="M30.276,24.866c-0.139,0.037-0.273,0.077-0.416,0.108
					c0,0.186,0,0.387,0,0.599c0.281-0.052,0.548-0.126,0.808-0.205C30.528,25.189,30.396,25.02,30.276,24.866"/>
				<path clip-path="url(#SVGID_186_)" fill="#0081C6" d="M27.51,25.652v-0.544c-0.166-0.016-0.332-0.032-0.495-0.055
					c0,0.008,0.002,0.017,0.002,0.023c0,0.172-0.012,0.34-0.025,0.507C27.161,25.61,27.335,25.633,27.51,25.652"/>
				<path clip-path="url(#SVGID_186_)" fill="#0081C6" d="M36.445,21.82c-1.345,0.271-2.275,0.929-3.35,1.604
					c-0.09,0.057-0.188,0.119-0.283,0.18c0.142,0.18,0.279,0.357,0.416,0.533c0.064-0.041,0.131-0.081,0.191-0.121
					c1.05-0.666,1.775-1.177,3.232-1.506c0.854-0.192,1.778-0.155,2.451,0.018c1.182,0.304,2.055,1.151,2.606,2.33
					c0.006,0.008,0.015,0.016,0.021,0.021C41.029,22.658,39.023,21.303,36.445,21.82"/>
				<path clip-path="url(#SVGID_186_)" fill="#0081C6" d="M9.142,22.351c-1.44-0.152-2.839-0.442-4.009-0.894
					c0.066,0.396,0.157,0.512,0.243,0.552c1.032,0.467,2.473,0.889,3.766,1.084V22.351"/>
				<path clip-path="url(#SVGID_186_)" fill="#FCB034" d="M42.623,28.062c0.1-0.029,0.203-0.062,0.308-0.107
					c-0.189-1.189-0.576-2.192-1.152-2.982c-0.013-0.018-0.026-0.034-0.049-0.06c0.391,0.663,0.682,1.58,0.815,2.578
					C42.577,27.729,42.603,27.896,42.623,28.062"/>
				<path clip-path="url(#SVGID_186_)" fill="#FCB034" d="M43.236,31.566c-0.074-0.481-0.116-0.965-0.139-1.396
					c-0.12,0.023-0.24,0.047-0.362,0.064c0.041,0.511,0.11,0.945,0.209,1.358L43.236,31.566"/>
				<path clip-path="url(#SVGID_186_)" d="M43.174,27.838c-0.247-1.115-0.688-2.128-1.394-2.861c0.576,0.789,0.96,1.79,1.149,2.978
					C43.012,27.922,43.093,27.882,43.174,27.838"/>
				<polyline clip-path="url(#SVGID_186_)" points="41.781,24.975 41.78,24.974 41.781,24.977 41.781,24.975 				"/>
				<path clip-path="url(#SVGID_186_)" d="M43.491,31.546c-0.034-0.464-0.055-0.948-0.064-1.446
					c-0.107,0.027-0.219,0.049-0.329,0.07c0.021,0.432,0.063,0.915,0.139,1.396L43.491,31.546"/>
				<path clip-path="url(#SVGID_186_)" fill="#ED1849" d="M42.477,25.198c0.608,0.599,1.031,1.335,1.287,2.181
					c0.096-0.104,0.188-0.219,0.271-0.349c-0.291-0.754-0.741-1.387-1.359-1.896c-0.302-0.249-0.671-0.453-1.077-0.631
					c0.004,0.009,0.008,0.02,0.013,0.029C41.963,24.748,42.254,24.979,42.477,25.198"/>
				<path clip-path="url(#SVGID_186_)" fill="#ED1849" d="M44.207,31.482c0.061-0.416,0.122-0.863,0.162-1.252
					c0.017-0.164,0.022-0.319,0.031-0.477c-0.123,0.055-0.246,0.107-0.375,0.156c-0.004,0.064-0.007,0.13-0.013,0.195
					c-0.039,0.483-0.08,0.949-0.115,1.402L44.207,31.482"/>
				<path clip-path="url(#SVGID_186_)" fill="#FCB034" d="M9.142,23.519c-1.214-0.111-2.517-0.333-3.723-0.809
					c-0.006,0.193,0.075,0.52,0.158,0.562c0.785,0.404,2.24,0.734,3.563,0.896L9.142,23.519"/>
				<path clip-path="url(#SVGID_186_)" fill="#FCB034" d="M21.493,24.811L21.493,24.811c0.908,0.193,1.734,0.428,2.516,0.661
					c0.013-0.13,0.032-0.256,0.032-0.393c0-0.015-0.003-0.029-0.003-0.044c-1.353-0.509-2.741-1.1-4.479-1.439
					c-0.121-0.021-0.244-0.041-0.369-0.061c-0.723-0.112-1.354-0.187-1.929-0.233c-2.002-0.108-3.361,0.239-5.303,0.299
					c0,0.229,0,0.462,0,0.702c2.89-0.044,5.102-0.559,8.163,0.15C20.607,24.565,21.061,24.687,21.493,24.811"/>
				<path clip-path="url(#SVGID_186_)" fill="#FCB034" d="M27.51,25.927c-0.188-0.02-0.376-0.039-0.56-0.067
					c-0.021,0.134-0.045,0.268-0.076,0.399c0.214,0.044,0.426,0.081,0.636,0.112V25.927"/>
				<path clip-path="url(#SVGID_186_)" fill="#FCB034" d="M30.794,25.529c-0.299,0.111-0.609,0.206-0.935,0.277
					c0,0.172,0,0.348,0,0.529c0.133-0.027,0.265-0.055,0.397-0.091c0.327-0.093,0.604-0.19,0.864-0.294
					C31.01,25.807,30.9,25.667,30.794,25.529"/>
				<path clip-path="url(#SVGID_186_)" fill="#FCB034" d="M36.435,22.599c-0.163,0.028-0.323,0.061-0.48,0.101
					c-1.021,0.323-1.666,0.768-2.533,1.317c-0.062,0.04-0.127,0.08-0.191,0.121c0.115,0.148,0.229,0.292,0.338,0.433
					c0.495-0.306,1.081-0.643,1.883-1.02c2.292-1.078,5.069-0.517,6.233,1.282c0.004,0.005,0.009,0.01,0.015,0.014
					C40.809,23.275,38.843,22.184,36.435,22.599"/>
				<path clip-path="url(#SVGID_186_)" fill="#00A94F" d="M9.142,25.42c-1.736,0.039-3.679-0.163-5.333-0.734
					c0.092,0.494,0.15,0.551,0.242,0.585c1.517,0.572,3.276,0.781,5.091,0.772V25.42"/>
				<path clip-path="url(#SVGID_186_)" fill="#00A94F" d="M23.912,26.056c0.047-0.188,0.079-0.381,0.098-0.585
					c-1.13-0.336-2.364-0.678-3.783-0.889c-3.575-0.527-5.255,0.135-8.267,0.578c0,0.242,0,0.478,0,0.707
					c3.168-0.385,4.53-1.205,8.609-0.569C21.864,25.5,22.934,25.781,23.912,26.056"/>
				<path clip-path="url(#SVGID_186_)" fill="#00A94F" d="M31.122,25.951c-0.26,0.104-0.537,0.201-0.864,0.294
					c-0.134,0.036-0.266,0.063-0.397,0.091c0,0.168,0,0.338,0,0.51c0.544-0.093,1.069-0.27,1.581-0.486
					C31.333,26.222,31.227,26.086,31.122,25.951"/>
				<path clip-path="url(#SVGID_186_)" fill="#00A94F" d="M41.555,24.72c0.149,0.166,0.191,0.209,0.226,0.254
					c0.707,0.733,1.146,1.748,1.395,2.864c0.079-0.044,0.157-0.093,0.234-0.146c-0.279-1.021-0.796-1.987-1.727-2.857
					c-1.164-1.799-3.941-2.36-6.233-1.282c-0.802,0.377-1.388,0.714-1.883,1.021c0.123,0.158,0.241,0.309,0.353,0.45
					c0.85-0.511,1.661-0.99,2.444-1.23C38.014,23.214,40.319,23.536,41.555,24.72"/>
				<path clip-path="url(#SVGID_186_)" fill="#00A94F" d="M43.71,31.525c0.004-0.43,0.013-0.865,0.003-1.279
					c-0.002-0.08-0.005-0.155-0.005-0.232c-0.096,0.029-0.187,0.061-0.281,0.086c0.011,0.498,0.03,0.982,0.064,1.446L43.71,31.525"
					/>
				<path clip-path="url(#SVGID_186_)" fill="#00A94F" d="M27.51,26.371c-0.21-0.031-0.422-0.068-0.636-0.112
					c-0.04,0.171-0.09,0.34-0.147,0.505c0.259,0.047,0.521,0.083,0.783,0.114V26.371"/>
				<path clip-path="url(#SVGID_186_)" fill="#0081C6" d="M53.685,28.271c0.098-0.008,0.193-0.011,0.283-0.027
					c-0.326-0.255-0.696-0.48-1.137-0.697C53.152,27.791,53.43,28.03,53.685,28.271"/>
				<path clip-path="url(#SVGID_186_)" fill="#0081C6" d="M55.045,30.312c0.125,0.389,0.205,0.799,0.224,1.254
					c0.04-0.477,0.011-0.902-0.064-1.295C55.151,30.286,55.097,30.298,55.045,30.312"/>
				<path clip-path="url(#SVGID_186_)" fill="#FCB034" d="M54.854,30.357c0.207,0.42,0.36,0.832,0.415,1.207
					c-0.019-0.453-0.099-0.864-0.224-1.254C54.982,30.328,54.918,30.344,54.854,30.357"/>
				<path clip-path="url(#SVGID_186_)" fill="#FCB034" d="M53.473,28.293c0.073,0,0.141-0.016,0.212-0.021
					c-0.255-0.241-0.532-0.48-0.854-0.726C53.037,27.771,53.254,28.025,53.473,28.293"/>
				<path clip-path="url(#SVGID_186_)" fill="#ED1849" d="M53.023,28.257c0.068,0.009,0.135,0.015,0.202,0.021
					c-0.154-0.258-0.295-0.508-0.395-0.729C52.867,27.788,52.938,28.023,53.023,28.257"/>
				<path clip-path="url(#SVGID_186_)" fill="#ED1849" d="M54.393,30.447c0.333,0.414,0.652,0.791,0.876,1.117
					c-0.127-0.318-0.361-0.72-0.641-1.151C54.55,30.428,54.472,30.436,54.393,30.447"/>
				<path clip-path="url(#SVGID_186_)" fill="#00A94F" d="M53.226,28.275c0.072,0.005,0.137,0.021,0.21,0.021
					c0.015,0,0.024-0.005,0.037-0.005c-0.219-0.269-0.436-0.521-0.642-0.746C52.931,27.77,53.071,28.02,53.226,28.275"/>
				<path clip-path="url(#SVGID_186_)" fill="#00A94F" d="M54.628,30.413c0.277,0.433,0.514,0.833,0.641,1.151
					c-0.055-0.375-0.208-0.787-0.415-1.207C54.778,30.376,54.704,30.398,54.628,30.413"/>
				<path clip-path="url(#SVGID_186_)" d="M63.702,26.332c-1.618-0.046-3.133-0.292-4.439-0.634
					c-1.893-0.494-2.597-0.837-3.684-1.021c-1.17-0.198-2.021-0.04-2.614,0.413c-0.309,0.233-0.506,0.603-0.563,1.009
					c0.055-0.327,0.212-0.635,0.501-0.865c0.632-0.503,1.617-0.452,2.476-0.298c1.016,0.184,2.185,0.623,3.92,1.137
					c1.45,0.396,3.1,0.688,4.824,0.796C63.982,26.689,63.842,26.51,63.702,26.332"/>
				<path clip-path="url(#SVGID_186_)" d="M69.091,25.943v0.651c1.534-0.288,3.04-0.778,4.437-1.544
					c0.103-0.053,0.205-0.15,0.221-0.663C72.333,25.133,70.727,25.634,69.091,25.943"/>
				<path clip-path="url(#SVGID_186_)" fill="#ED1849" d="M64.742,27.663c-1.801-0.138-3.615-0.486-5.351-1.059
					c-1.812-0.598-2.844-0.932-3.818-1.091c-0.999-0.161-1.941-0.14-2.462,0.307c-0.364,0.315-0.618,1.068-0.284,1.716
					c-0.006-0.004-0.009-0.009-0.014-0.013c0.007,0.008,0.014,0.017,0.018,0.022c-0.184-0.658,0.257-1.16,0.713-1.382
					c0.575-0.28,1.244-0.312,2.302-0.138c1.063,0.175,2.549,0.817,4.255,1.348c1.636,0.51,3.39,0.834,5.17,0.968
					C65.109,28.135,64.931,27.906,64.742,27.663"/>
				<path clip-path="url(#SVGID_186_)" fill="#ED1849" d="M69.091,27.656v0.672c2.092-0.176,4.153-0.63,6.05-1.395
					c0.113-0.046,0.192-0.246,0.302-0.621C73.436,27.124,71.237,27.521,69.091,27.656"/>
				<path clip-path="url(#SVGID_186_)" fill="#00A94F" d="M64.238,27.019c-1.734-0.141-3.27-0.456-4.809-0.907
					c-1.81-0.531-3.011-0.987-4.053-1.176c-0.857-0.154-1.844-0.205-2.476,0.298c-0.289,0.23-0.446,0.538-0.501,0.865
					c-0.064,0.475,0.059,1.001,0.417,1.428c0.003,0.004,0.005,0.007,0.01,0.01c-0.334-0.647-0.08-1.4,0.284-1.716
					c0.521-0.446,1.463-0.468,2.461-0.307c0.977,0.159,2.007,0.493,3.819,1.091c1.734,0.572,3.55,0.92,5.351,1.059
					C64.579,27.455,64.412,27.239,64.238,27.019"/>
				<path clip-path="url(#SVGID_186_)" fill="#00A94F" d="M69.091,26.91v0.652c1.926-0.25,3.728-0.772,5.255-1.587
					c0.123-0.07,0.192-0.248,0.237-0.627C72.972,26.188,70.819,26.673,69.091,26.91"/>
				<path clip-path="url(#SVGID_186_)" fill="#ED1849" d="M55.27,31.564c0.774,2.197,0.064,4.541-2.112,5.646
					c-0.173,0.09-0.355,0.17-0.55,0.238c-0.705,0.263-1.411,0.394-2.1,0.419c-2.485,0.315-4.337-0.524-5.535-1.759v0.264
					c1.726,2.011,5.465,2.705,7.978,1.638c1.549-0.657,2.577-1.837,2.77-3.481C55.841,33.479,55.645,32.294,55.27,31.564"/>
				<path clip-path="url(#SVGID_186_)" fill="#00A94F" d="M55.27,31.564c0,0.01,0.004,0.029,0.01,0.047
					C55.275,31.598,55.272,31.585,55.27,31.564"/>
				<path clip-path="url(#SVGID_186_)" fill="#00A94F" d="M55.279,31.611c0.001,0.012,0.002,0.021,0.007,0.033
					C55.283,31.639,55.281,31.627,55.279,31.611"/>
				<path clip-path="url(#SVGID_186_)" fill="#00A94F" d="M55.27,31.564c0.563,2.216-0.888,4.668-3.303,5.406
					c-1.832,0.559-3.771,0.189-5.4-0.578c-0.625-0.295-1.156-0.653-1.594-1.043v0.272c1.521,1.646,4.591,2.956,7.635,1.826
					C55.213,36.48,56.105,33.938,55.27,31.564"/>
				<path clip-path="url(#SVGID_186_)" fill="#FCB034" d="M55.27,31.564c0.015,0.121,0.027,0.276,0.021,0.399
					c-0.002,1.743-1.332,3.72-3.484,4.326c-1.601,0.451-3.099,0.261-4.447-0.144c-0.931-0.234-1.748-0.615-2.387-1.062v0.264
					c0.438,0.391,0.969,0.75,1.594,1.045c1.632,0.768,3.568,1.135,5.4,0.577C54.382,36.232,55.832,33.78,55.27,31.564"/>
				<path clip-path="url(#SVGID_186_)" fill="#0081C6" d="M55.27,31.564c-0.215,1.342-1.689,2.922-3.516,3.604
					c-2.253,0.841-5.048,0.57-6.781-0.317v0.232c1.55,1.086,4.211,1.771,6.742,0.945C53.887,35.322,55.479,33.227,55.27,31.564"/>
				<path clip-path="url(#SVGID_186_)" fill="#0081C6" d="M42.749,31.609c-0.118-0.441-0.196-0.893-0.242-1.346
					c-0.102,0.012-0.203,0.022-0.306,0.031c0.051,0.479,0.139,0.926,0.266,1.339L42.749,31.609"/>
				<path clip-path="url(#SVGID_186_)" fill="#0081C6" d="M42.126,28.161c0.088-0.011,0.18-0.024,0.279-0.046
					c-0.039-1.219-0.254-2.266-0.647-3.15c0.254,0.85,0.396,1.861,0.372,3.02C42.128,28.044,42.127,28.102,42.126,28.161"/>
				<path clip-path="url(#SVGID_186_)" d="M21.156,19.989c-1.839,0-3.461,0.84-4.459,2.125c0.666,0.048,1.404,0.13,2.269,0.269
					c0.578-0.561,1.343-0.883,2.19-0.883c1.795,0,3.247,1.384,3.247,3.579c0,2.194-1.452,3.58-3.247,3.58
					c-1.357,0-2.513-0.8-2.996-2.138c-0.791,0.002-1.519,0.051-2.221,0.13c0.719,2.039,2.775,3.515,5.217,3.515
					c3.037,0,5.498-2.273,5.498-5.089C26.654,22.264,24.193,19.989,21.156,19.989"/>
				<path clip-path="url(#SVGID_186_)" d="M34.813,25.724v1.034c0,0-4.135-5.277-4.473-5.73c-0.447-0.602-0.67-0.81-1.41-0.81
					h-1.057v9.736h1.625v-6.675l4.591,5.884c0.48,0.606,0.729,0.819,1.622,0.819h0.733v-5.089
					C35.877,25.127,35.344,25.416,34.813,25.724"/>
				<path clip-path="url(#SVGID_186_)" d="M36.373,21.465c0.022-0.005,0.048-0.005,0.071-0.01v-1.236h-1.633v1.78
					C35.287,21.772,35.789,21.582,36.373,21.465"/>
				<path clip-path="url(#SVGID_186_)" d="M41.629,20.218h-3.236v1.229c0.786,0.145,1.5,0.472,2.099,0.962c0-0.466,0-0.771,0-0.771
					h1.289c0.517,0,3.101,0.165,3.101,3.432c0,2.563-1.609,3.478-3.115,3.478c0,0-0.953,0-1.273,0c0-0.219,0-2.246,0-4.048
					c-0.683-0.181-1.356-0.224-2.101-0.124l-0.003,5.582l3.257-0.002c3.208,0,5.459-2.047,5.459-5.029
					C47.104,22.256,45.116,20.218,41.629,20.218"/>
				<path clip-path="url(#SVGID_186_)" d="M49.217,33.117c0.787,0.017,1.253,0.472,1.253,1.123c0,0.314-0.057,0.609-0.2,0.945
					c0.463-0.076,0.919-0.192,1.356-0.357c0.317-0.117,0.621-0.277,0.915-0.45c0-0.017,0.002-0.032,0.002-0.049
					c0.021-1.519-1.083-2.688-3.115-2.688c-1.1,0-2.072,0.346-2.861,0.771l0.003,1.686C47.538,33.374,48.321,33.102,49.217,33.117"
					/>
				<path clip-path="url(#SVGID_186_)" d="M49.854,38.839c-0.654-0.037-1.306-0.147-1.933-0.328
					c-0.274,0.345-0.572,0.716-0.905,1.126l-1.397,1.74l7.013-0.001l1.021-1.446c0,0-3.956,0-4.73,0
					C49.267,39.545,49.572,39.18,49.854,38.839"/>
				<path clip-path="url(#SVGID_186_)" d="M58.181,27.109c-0.652-0.229-1.237-0.434-1.752-0.575
					c-0.487,1.33-1.639,2.125-2.993,2.125c-1.794,0-3.246-1.386-3.246-3.58c0-2.195,1.452-3.579,3.246-3.579
					c1.218,0,2.271,0.644,2.826,1.739l0.727,0.182l1.776,0.46c-0.584-2.233-2.741-3.892-5.329-3.892
					c-3.035,0-5.497,2.274-5.497,5.088c0,2.813,2.462,5.089,5.497,5.089c2.221,0,4.123-1.221,4.99-2.974L58.181,27.109"/>
				<path clip-path="url(#SVGID_186_)" d="M60.155,27.768v2.188h1.625v-1.768C61.229,28.064,60.686,27.927,60.155,27.768"/>
				<path clip-path="url(#SVGID_186_)" d="M67.098,20.219v6.539c0,0-4.137-5.277-4.475-5.73c-0.448-0.602-0.669-0.81-1.409-0.81
					h-1.06v3.936c0.541,0.088,1.086,0.15,1.625,0.187V23.28l4.594,5.884c0.479,0.607,0.729,0.818,1.621,0.818h0.732v-9.764H67.098"
					/>
			</g>
		</g>
	</g>
</g>
</svg>
